<svg id="ePnuV7rMgOk1" xmlns="http://www.w3.org/2000/svg" xmlns:xlink="http://www.w3.org/1999/xlink" viewBox="0 0 512 512" shape-rendering="geometricPrecision" text-rendering="geometricPrecision"><g><path d="M172.625,102.4c-42.674,0-77.392,34.739-77.392,77.438c0,5.932,4.806,10.74,10.733,10.74c5.928,0,10.733-4.808,10.733-10.74c0-30.856,25.088-55.959,55.926-55.959c5.928,0,10.733-4.808,10.733-10.74c0-5.931-4.805-10.739-10.733-10.739Z"/><path d="M361.657,301.511c19.402-30.436,30.645-66.546,30.645-105.244C392.302,88.036,304.318,0,196.151,0C157.475,0,121.386,11.25,90.969,30.663C66.734,46.123,46.11,66.759,30.659,91.008C11.257,121.444,0,157.568,0,196.267C0,304.484,87.998,392.533,196.151,392.533c38.676,0,74.779-11.264,105.197-30.677c24.234-15.46,44.858-36.096,60.309-60.345ZM259.758,320.242c-19.075,9.842-40.708,15.403-63.607,15.403-76.797,0-139.296-62.535-139.296-139.378c0-22.912,5.558-44.558,15.394-63.644c13.318-25.856,34.483-47.019,60.323-60.331c19.075-9.842,40.694-15.403,63.578-15.403c76.812,0,139.296,62.521,139.296,139.378c0,22.898-5.558,44.53-15.394,63.616-13.303,25.856-34.454,47.033-60.294,60.359Z"/><path d="M499.516,439.154L386.275,326.13c-16.119,23.552-36.771,44.202-60.309,60.345L439.207,499.499C447.536,507.833,458.453,512,469.355,512c10.916,0,21.833-4.167,30.162-12.501c16.644-16.669,16.644-43.677-.001-60.345Z"/></g></svg>
