<svg id="eLHkdonONjT1" xmlns="http://www.w3.org/2000/svg" xmlns:xlink="http://www.w3.org/1999/xlink" viewBox="0 0 512 512" shape-rendering="geometricPrecision" text-rendering="geometricPrecision"><g><g><path d="M511.083,100.779c-.171-.597-.427-1.152-.661-1.728-.469-1.259-1.067-2.475-1.792-3.627-.363-.576-.725-1.131-1.152-1.685-.832-1.067-1.771-2.027-2.795-2.944-.469-.405-.896-.875-1.387-1.237-.149-.107-.256-.256-.405-.363-1.493-1.045-3.093-1.856-4.757-2.475-.064-.021-.107-.085-.171-.107L263.296,1.28c-4.715-1.707-9.877-1.707-14.592,0L14.037,86.613c-.064.021-.107.085-.171.107-1.664.619-3.264,1.429-4.757,2.475-.149.107-.256.256-.405.363-.491.363-.917.832-1.387,1.237-1.024.917-1.963,1.877-2.795,2.944-.427.555-.789,1.109-1.152,1.685-.725,1.152-1.323,2.368-1.792,3.627-.235.576-.491,1.131-.661,1.728C0.363,102.677,0,104.64,0,106.667v298.667c0,8.981,5.611,16.981,14.037,20.053L248.704,510.72c.149.064.32.043.469.085c2.219.747,4.501,1.195,6.827,1.195c2.325,0,4.608-.448,6.827-1.195.149-.043.32-.021.469-.085l234.667-85.333C506.39,422.315,512,414.315,512,405.334v-298.667c0-2.027-.363-3.99-.917-5.888ZM234.667,460.203l-192-69.803v-253.269l192,69.824v253.248ZM256,169.301L83.755,106.667L256,44.032l172.245,62.635L256,169.301Z"/></g></g></svg>
