<svg xmlns="http://www.w3.org/2000/svg" xmlns:xlink="http://www.w3.org/1999/xlink" width="450" zoomAndPan="magnify" viewBox="0 0 337.5 74.999997" height="100" preserveAspectRatio="xMidYMid meet" version="1.0"><defs><g/><clipPath id="f27e305385"><path d="M 8 4 L 65 4 L 65 74 L 8 74 Z M 8 4 " clip-rule="nonzero"/></clipPath><clipPath id="c1c0c3b701"><path d="M 0 9.921875 L 60.792969 0.605469 L 70.789062 65.84375 L 9.996094 75.160156 Z M 0 9.921875 " clip-rule="nonzero"/></clipPath><clipPath id="127440227b"><path d="M 0 9.921875 L 60.792969 0.605469 L 70.789062 65.84375 L 9.996094 75.160156 Z M 0 9.921875 " clip-rule="nonzero"/></clipPath></defs><g clip-path="url(#f27e305385)"><g clip-path="url(#c1c0c3b701)"><g clip-path="url(#127440227b)"><path fill="#dab674" d="M 60.382812 44.589844 C 57.925781 43.320312 56.074219 38.808594 56.097656 38.777344 C 51.871094 38.328125 48.921875 36.34375 48.933594 36.417969 C 43.148438 40.382812 42.765625 39.019531 40.347656 41.191406 C 38.304688 42.992188 38.5 43.417969 37.863281 47.125 C 37.246094 50.378906 41.046875 49.496094 45.082031 54.328125 C 50.359375 51.679688 53.492188 52.074219 55.402344 51.976562 C 56.242188 51.898438 55.652344 48.914062 60.382812 44.589844 M 34.691406 11.933594 C 35.3125 10.820312 35.65625 10.558594 36.480469 9.234375 C 37.753906 7.082031 35.277344 4.554688 34.328125 5.0625 C 33.167969 5.75 32.707031 8.011719 31.328125 8.980469 C 30.839844 9.339844 29.402344 11.949219 28.003906 13.84375 C 26.953125 15.230469 26.144531 15.914062 25.175781 17.460938 C 23.476562 19.886719 23.34375 21.613281 21.9375 24.125 C 21.050781 25.628906 20.359375 26.101562 19.632812 27.789062 C 15.777344 37.25 17.855469 40.921875 13.867188 47.804688 C 12.648438 50 11.003906 50.679688 8.765625 52.199219 C 8.746094 67.027344 17.382812 73.988281 17.34375 73.941406 C 23.121094 69.820312 26.25 67.984375 32.796875 67.191406 C 35.242188 66.933594 36.675781 67.664062 39.0625 67.144531 C 41.300781 66.671875 42.335938 65.753906 44.480469 64.8125 C 47.773438 63.265625 49.523438 62.125 52.824219 60.652344 C 55.195312 59.648438 56.628906 59.40625 58.914062 58.21875 C 60.820312 57.234375 59.96875 58.003906 61.175781 56.375 C 62.710938 54.222656 62.078125 52.871094 63.191406 49.597656 C 64.878906 45.074219 64.539062 44.566406 63.234375 44.308594 C 63.695312 42.046875 63.703125 40.648438 63.171875 38.4375 C 62.644531 36.730469 63.308594 35.390625 61.027344 34.410156 C 57.902344 32.90625 51.285156 29.433594 49.761719 29.640625 C 47.496094 30.015625 40.84375 30.800781 37.785156 33.289062 C 37.074219 33.933594 36.953125 34.382812 37.351562 32.769531 C 37.453125 32.464844 44.820312 25.507812 45.714844 25.292969 C 56.164062 23.496094 52.582031 23.511719 53.269531 23.679688 C 53.765625 23.550781 59.6875 28.25 62.453125 25.882812 C 63.472656 25.050781 63.941406 24.363281 64.25 23.222656 C 63.714844 22.507812 61.6875 21.644531 59.84375 21.042969 C 57.152344 19.953125 56.667969 18.527344 54.152344 18.417969 C 51.054688 18.242188 47.898438 19.128906 45.96875 19.085938 C 45.226562 19.132812 38.871094 21.855469 35.066406 24.382812 C 31.484375 26.78125 39.777344 20.296875 41.628906 17.339844 C 48.003906 14.546875 46.085938 14.765625 49.203125 13.632812 C 52.039062 12.664062 51.929688 12.824219 53.859375 11.996094 C 55.835938 11.183594 57.191406 8.433594 55.007812 7.320312 C 53.679688 6.703125 50.222656 8.484375 46.605469 9.0625 C 45.027344 9.410156 38.90625 13.074219 37.539062 14.039062 C 34.097656 16.328125 31.742188 19.179688 29.761719 20.8125 C 27.003906 23.242188 32.40625 15.257812 34.6875 11.933594 " fill-opacity="1" fill-rule="evenodd"/></g></g></g><g fill="#000000" fill-opacity="1"><g transform="translate(13.610875, 58.135011)"><g><path d="M 3.1875 0 L 3.1875 -36.609375 L 17.625 -36.609375 C 20.40625 -36.609375 22.769531 -36.082031 24.71875 -35.03125 C 26.675781 -33.976562 28.171875 -32.519531 29.203125 -30.65625 C 30.234375 -28.789062 30.75 -26.640625 30.75 -24.203125 C 30.75 -21.773438 30.222656 -19.632812 29.171875 -17.78125 C 28.128906 -15.925781 26.613281 -14.476562 24.625 -13.4375 C 22.644531 -12.394531 20.25 -11.875 17.4375 -11.875 L 10.921875 -11.875 L 10.921875 0 Z M 10.921875 -18.078125 L 16.171875 -18.078125 C 18.390625 -18.078125 20.046875 -18.644531 21.140625 -19.78125 C 22.234375 -20.914062 22.78125 -22.390625 22.78125 -24.203125 C 22.78125 -26.023438 22.234375 -27.492188 21.140625 -28.609375 C 20.046875 -29.722656 18.378906 -30.28125 16.140625 -30.28125 L 10.921875 -30.28125 Z M 10.921875 -18.078125 "/></g></g></g><g fill="#000000" fill-opacity="1"><g transform="translate(58.817455, 58.135011)"><g><path d="M 15.015625 0.578125 C 12.441406 0.578125 10.222656 -0.03125 8.359375 -1.25 C 6.503906 -2.46875 5.078125 -4.140625 4.078125 -6.265625 C 3.078125 -8.398438 2.578125 -10.84375 2.578125 -13.59375 C 2.578125 -16.375 3.09375 -18.832031 4.125 -20.96875 C 5.15625 -23.113281 6.597656 -24.789062 8.453125 -26 C 10.304688 -27.207031 12.472656 -27.8125 14.953125 -27.8125 C 16.878906 -27.8125 18.613281 -27.453125 20.15625 -26.734375 C 21.707031 -26.023438 22.976562 -25.023438 23.96875 -23.734375 C 24.957031 -22.453125 25.570312 -20.953125 25.8125 -19.234375 L 21.59375 -19.234375 C 21.269531 -20.484375 20.554688 -21.59375 19.453125 -22.5625 C 18.359375 -23.539062 16.878906 -24.03125 15.015625 -24.03125 C 12.546875 -24.03125 10.554688 -23.085938 9.046875 -21.203125 C 7.546875 -19.328125 6.796875 -16.835938 6.796875 -13.734375 C 6.796875 -10.546875 7.539062 -7.992188 9.03125 -6.078125 C 10.519531 -4.171875 12.515625 -3.21875 15.015625 -3.21875 C 16.660156 -3.21875 18.066406 -3.640625 19.234375 -4.484375 C 20.410156 -5.328125 21.195312 -6.503906 21.59375 -8.015625 L 25.8125 -8.015625 C 25.570312 -6.390625 24.984375 -4.929688 24.046875 -3.640625 C 23.117188 -2.347656 21.890625 -1.320312 20.359375 -0.5625 C 18.828125 0.195312 17.046875 0.578125 15.015625 0.578125 Z M 15.015625 0.578125 "/></g></g></g><g fill="#000000" fill-opacity="1"><g transform="translate(86.922839, 58.135011)"><g><path d="M 3.859375 0 L 3.859375 -36.609375 L 8.078125 -36.609375 L 8.078125 -15.234375 L 8.578125 -15.234375 L 20.59375 -27.453125 L 25.8125 -27.453125 L 14.21875 -15.734375 L 26.671875 0 L 21.3125 0 L 11.03125 -13.015625 L 8.078125 -10.28125 L 8.078125 0 Z M 3.859375 0 "/></g></g></g><g fill="#000000" fill-opacity="1"><g transform="translate(114.313068, 58.135011)"><g><path d="M 15.375 0.578125 C 12.726562 0.578125 10.445312 -0.0078125 8.53125 -1.1875 C 6.625 -2.363281 5.15625 -4.007812 4.125 -6.125 C 3.09375 -8.238281 2.578125 -10.703125 2.578125 -13.515625 C 2.578125 -16.328125 3.09375 -18.804688 4.125 -20.953125 C 5.15625 -23.109375 6.597656 -24.789062 8.453125 -26 C 10.304688 -27.207031 12.472656 -27.8125 14.953125 -27.8125 C 16.378906 -27.8125 17.789062 -27.570312 19.1875 -27.09375 C 20.582031 -26.625 21.847656 -25.851562 22.984375 -24.78125 C 24.128906 -23.71875 25.039062 -22.3125 25.71875 -20.5625 C 26.40625 -18.8125 26.75 -16.65625 26.75 -14.09375 L 26.75 -12.296875 L 6.8125 -12.296875 C 6.90625 -9.367188 7.734375 -7.125 9.296875 -5.5625 C 10.867188 -4 12.894531 -3.21875 15.375 -3.21875 C 17.03125 -3.21875 18.453125 -3.570312 19.640625 -4.28125 C 20.835938 -5 21.703125 -6.078125 22.234375 -7.515625 L 26.3125 -6.359375 C 25.664062 -4.285156 24.378906 -2.609375 22.453125 -1.328125 C 20.523438 -0.0546875 18.164062 0.578125 15.375 0.578125 Z M 6.8125 -15.953125 L 22.453125 -15.953125 C 22.453125 -18.273438 21.769531 -20.203125 20.40625 -21.734375 C 19.050781 -23.265625 17.234375 -24.03125 14.953125 -24.03125 C 13.335938 -24.03125 11.941406 -23.65625 10.765625 -22.90625 C 9.585938 -22.15625 8.65625 -21.160156 7.96875 -19.921875 C 7.289062 -18.691406 6.90625 -17.367188 6.8125 -15.953125 Z M 6.8125 -15.953125 "/></g></g></g><g fill="#000000" fill-opacity="1"><g transform="translate(143.634205, 58.135011)"><g><path d="M 15.796875 -27.453125 L 15.796875 -23.890625 L 9.9375 -23.890625 L 9.9375 -7.859375 C 9.9375 -6.671875 10.113281 -5.78125 10.46875 -5.1875 C 10.820312 -4.601562 11.273438 -4.210938 11.828125 -4.015625 C 12.378906 -3.816406 12.96875 -3.71875 13.59375 -3.71875 C 14.050781 -3.71875 14.425781 -3.742188 14.71875 -3.796875 C 15.019531 -3.847656 15.265625 -3.894531 15.453125 -3.9375 L 16.296875 -0.140625 C 16.015625 -0.0351562 15.617188 0.0703125 15.109375 0.1875 C 14.597656 0.300781 13.945312 0.359375 13.15625 0.359375 C 11.96875 0.359375 10.800781 0.101562 9.65625 -0.40625 C 8.519531 -0.925781 7.578125 -1.707031 6.828125 -2.75 C 6.085938 -3.800781 5.71875 -5.125 5.71875 -6.71875 L 5.71875 -23.890625 L 1.578125 -23.890625 L 1.578125 -27.453125 L 5.71875 -27.453125 L 5.71875 -34.046875 L 9.9375 -34.046875 L 9.9375 -27.453125 Z M 15.796875 -27.453125 "/></g></g></g><g fill="#000000" fill-opacity="1"><g transform="translate(161.93036, 58.135011)"><g><path d="M 3.1875 0 L 3.1875 -36.609375 L 17.84375 -36.609375 C 21.882812 -36.609375 24.921875 -35.726562 26.953125 -33.96875 C 28.984375 -32.21875 30 -29.972656 30 -27.234375 C 30 -25.066406 29.375 -23.316406 28.125 -21.984375 C 26.875 -20.660156 25.296875 -19.785156 23.390625 -19.359375 L 23.390625 -19 C 24.773438 -18.945312 26.078125 -18.554688 27.296875 -17.828125 C 28.523438 -17.097656 29.519531 -16.082031 30.28125 -14.78125 C 31.039062 -13.488281 31.421875 -11.9375 31.421875 -10.125 C 31.421875 -8.175781 30.941406 -6.4375 29.984375 -4.90625 C 29.023438 -3.382812 27.609375 -2.1875 25.734375 -1.3125 C 23.867188 -0.4375 21.566406 0 18.828125 0 Z M 10.921875 -6.328125 L 17.234375 -6.328125 C 19.398438 -6.328125 20.972656 -6.742188 21.953125 -7.578125 C 22.941406 -8.410156 23.4375 -9.515625 23.4375 -10.890625 C 23.4375 -12.398438 22.894531 -13.632812 21.8125 -14.59375 C 20.738281 -15.5625 19.269531 -16.046875 17.40625 -16.046875 L 10.921875 -16.046875 Z M 10.921875 -21.296875 L 16.65625 -21.296875 C 18.25 -21.296875 19.566406 -21.707031 20.609375 -22.53125 C 21.660156 -23.363281 22.1875 -24.5 22.1875 -25.9375 C 22.1875 -27.257812 21.71875 -28.328125 20.78125 -29.140625 C 19.84375 -29.953125 18.519531 -30.359375 16.8125 -30.359375 L 10.921875 -30.359375 Z M 10.921875 -21.296875 "/></g></g></g><g fill="#000000" fill-opacity="1"><g transform="translate(195.199824, 58.135011)"><g><path d="M 21.171875 -11.234375 L 21.171875 -27.453125 L 25.390625 -27.453125 L 25.390625 0 L 21.171875 0 L 21.171875 -4.640625 L 20.875 -4.640625 C 20.238281 -3.253906 19.238281 -2.070312 17.875 -1.09375 C 16.519531 -0.125 14.804688 0.359375 12.734375 0.359375 C 10.160156 0.359375 8.035156 -0.488281 6.359375 -2.1875 C 4.691406 -3.894531 3.859375 -6.503906 3.859375 -10.015625 L 3.859375 -27.453125 L 8.078125 -27.453125 L 8.078125 -10.296875 C 8.078125 -8.296875 8.640625 -6.695312 9.765625 -5.5 C 10.890625 -4.3125 12.332031 -3.71875 14.09375 -3.71875 C 15.132812 -3.71875 16.203125 -3.984375 17.296875 -4.515625 C 18.390625 -5.054688 19.304688 -5.878906 20.046875 -6.984375 C 20.796875 -8.097656 21.171875 -9.515625 21.171875 -11.234375 Z M 21.171875 -11.234375 "/></g></g></g><g fill="#000000" fill-opacity="1"><g transform="translate(224.449447, 58.135011)"><g><path d="M 3.859375 0 L 3.859375 -27.453125 L 8.078125 -27.453125 L 8.078125 0 Z M 6 -32.03125 C 5.175781 -32.03125 4.46875 -32.3125 3.875 -32.875 C 3.289062 -33.4375 3 -34.109375 3 -34.890625 C 3 -35.679688 3.289062 -36.359375 3.875 -36.921875 C 4.46875 -37.484375 5.175781 -37.765625 6 -37.765625 C 6.820312 -37.765625 7.53125 -37.484375 8.125 -36.921875 C 8.71875 -36.359375 9.015625 -35.679688 9.015625 -34.890625 C 9.015625 -34.109375 8.71875 -33.4375 8.125 -32.875 C 7.53125 -32.3125 6.820312 -32.03125 6 -32.03125 Z M 6 -32.03125 "/></g></g></g><g fill="#000000" fill-opacity="1"><g transform="translate(236.39244, 58.135011)"><g><path d="M 8.078125 -36.609375 L 8.078125 0 L 3.859375 0 L 3.859375 -36.609375 Z M 8.078125 -36.609375 "/></g></g></g><g fill="#000000" fill-opacity="1"><g transform="translate(248.335433, 58.135011)"><g><path d="M 14.234375 0.578125 C 11.941406 0.578125 9.921875 -0.00390625 8.171875 -1.171875 C 6.421875 -2.335938 5.050781 -3.984375 4.0625 -6.109375 C 3.070312 -8.234375 2.578125 -10.75 2.578125 -13.65625 C 2.578125 -16.539062 3.070312 -19.039062 4.0625 -21.15625 C 5.050781 -23.28125 6.425781 -24.921875 8.1875 -26.078125 C 9.945312 -27.234375 11.984375 -27.8125 14.296875 -27.8125 C 16.085938 -27.8125 17.503906 -27.515625 18.546875 -26.921875 C 19.585938 -26.335938 20.382812 -25.671875 20.9375 -24.921875 C 21.5 -24.179688 21.929688 -23.570312 22.234375 -23.09375 L 22.59375 -23.09375 L 22.59375 -36.609375 L 26.8125 -36.609375 L 26.8125 0 L 22.734375 0 L 22.734375 -4.21875 L 22.234375 -4.21875 C 21.929688 -3.71875 21.492188 -3.085938 20.921875 -2.328125 C 20.347656 -1.578125 19.53125 -0.90625 18.46875 -0.3125 C 17.40625 0.28125 15.992188 0.578125 14.234375 0.578125 Z M 14.796875 -3.21875 C 17.335938 -3.21875 19.285156 -4.191406 20.640625 -6.140625 C 21.992188 -8.085938 22.671875 -10.617188 22.671875 -13.734375 C 22.671875 -16.804688 22.003906 -19.289062 20.671875 -21.1875 C 19.335938 -23.082031 17.378906 -24.03125 14.796875 -24.03125 C 13.015625 -24.03125 11.53125 -23.570312 10.34375 -22.65625 C 9.15625 -21.75 8.265625 -20.515625 7.671875 -18.953125 C 7.085938 -17.398438 6.796875 -15.660156 6.796875 -13.734375 C 6.796875 -11.773438 7.09375 -10 7.6875 -8.40625 C 8.289062 -6.820312 9.1875 -5.5625 10.375 -4.625 C 11.5625 -3.6875 13.035156 -3.21875 14.796875 -3.21875 Z M 14.796875 -3.21875 "/></g></g></g><g fill="#000000" fill-opacity="1"><g transform="translate(279.587466, 58.135011)"><g><path d="M 15.375 0.578125 C 12.726562 0.578125 10.445312 -0.0078125 8.53125 -1.1875 C 6.625 -2.363281 5.15625 -4.007812 4.125 -6.125 C 3.09375 -8.238281 2.578125 -10.703125 2.578125 -13.515625 C 2.578125 -16.328125 3.09375 -18.804688 4.125 -20.953125 C 5.15625 -23.109375 6.597656 -24.789062 8.453125 -26 C 10.304688 -27.207031 12.472656 -27.8125 14.953125 -27.8125 C 16.378906 -27.8125 17.789062 -27.570312 19.1875 -27.09375 C 20.582031 -26.625 21.847656 -25.851562 22.984375 -24.78125 C 24.128906 -23.71875 25.039062 -22.3125 25.71875 -20.5625 C 26.40625 -18.8125 26.75 -16.65625 26.75 -14.09375 L 26.75 -12.296875 L 6.8125 -12.296875 C 6.90625 -9.367188 7.734375 -7.125 9.296875 -5.5625 C 10.867188 -4 12.894531 -3.21875 15.375 -3.21875 C 17.03125 -3.21875 18.453125 -3.570312 19.640625 -4.28125 C 20.835938 -5 21.703125 -6.078125 22.234375 -7.515625 L 26.3125 -6.359375 C 25.664062 -4.285156 24.378906 -2.609375 22.453125 -1.328125 C 20.523438 -0.0546875 18.164062 0.578125 15.375 0.578125 Z M 6.8125 -15.953125 L 22.453125 -15.953125 C 22.453125 -18.273438 21.769531 -20.203125 20.40625 -21.734375 C 19.050781 -23.265625 17.234375 -24.03125 14.953125 -24.03125 C 13.335938 -24.03125 11.941406 -23.65625 10.765625 -22.90625 C 9.585938 -22.15625 8.65625 -21.160156 7.96875 -19.921875 C 7.289062 -18.691406 6.90625 -17.367188 6.8125 -15.953125 Z M 6.8125 -15.953125 "/></g></g></g><g fill="#000000" fill-opacity="1"><g transform="translate(308.908603, 58.135011)"><g><path d="M 3.859375 0 L 3.859375 -27.453125 L 7.9375 -27.453125 L 7.9375 -23.3125 L 8.21875 -23.3125 C 8.707031 -24.664062 9.609375 -25.765625 10.921875 -26.609375 C 12.234375 -27.460938 13.71875 -27.890625 15.375 -27.890625 C 16.132812 -27.890625 16.800781 -27.800781 17.375 -27.625 C 17.945312 -27.445312 18.445312 -27.203125 18.875 -26.890625 L 17.453125 -23.3125 C 17.148438 -23.46875 16.796875 -23.585938 16.390625 -23.671875 C 15.992188 -23.765625 15.535156 -23.8125 15.015625 -23.8125 C 13.015625 -23.8125 11.359375 -23.195312 10.046875 -21.96875 C 8.734375 -20.75 8.078125 -19.21875 8.078125 -17.375 L 8.078125 0 Z M 3.859375 0 "/></g></g></g></svg>